<svg width="238" height="56" viewBox="0 0 238 56" fill="none" xmlns="http://www.w3.org/2000/svg" role="img" aria-labelledby="title desc">
  <title id="title">FlowSphere</title>
  <desc id="desc">FlowSphere blue sphere mark and wordmark.</desc>
  <defs>
    <linearGradient id="markTop" x1="16" y1="6" x2="40" y2="46" gradientUnits="userSpaceOnUse">
      <stop offset="0" stop-color="#21D4FD"/>
      <stop offset="0.48" stop-color="#1B7CFF"/>
      <stop offset="1" stop-color="#1734C8"/>
    </linearGradient>
    <linearGradient id="markBottom" x1="12" y1="22" x2="44" y2="54" gradientUnits="userSpaceOnUse">
      <stop offset="0" stop-color="#0B1B4D"/>
      <stop offset="0.55" stop-color="#1746D8"/>
      <stop offset="1" stop-color="#1D8BFF"/>
    </linearGradient>
    <linearGradient id="sphereText" x1="117" y1="11" x2="222" y2="43" gradientUnits="userSpaceOnUse">
      <stop offset="0" stop-color="#1D76FF"/>
      <stop offset="1" stop-color="#22C5FF"/>
    </linearGradient>
  </defs>

  <g>
    <path
      d="M48.1 21.2C45.7 10.5 36.1 2.6 24.9 2.6C12 2.6 1.5 12.8 1 25.6C0.9 27 2 28.2 3.4 28.3C10.2 28.8 15.2 31.6 20.2 34.6C26.8 38.5 33.8 42.6 45.3 39.7C46.3 39.5 47 38.7 47.3 37.8C48.8 32.6 49.1 26.8 48.1 21.2Z"
      fill="url(#markTop)"
    />
    <path
      d="M3.2 32.1C5.8 42.3 14.7 50 25.6 50.9C38.4 52 49.7 42.7 51.3 29.9C51.5 28.4 50.4 27.1 48.9 27C41.1 26.2 35.6 23.1 30.1 19.9C24.1 16.4 17.9 12.8 8.8 15C7.9 15.2 7.2 15.8 6.9 16.6C4.5 21.3 2.7 26.6 2.8 31.2C2.8 31.5 2.9 31.8 3.2 32.1Z"
      fill="url(#markBottom)"
      opacity="0.96"
    />
    <path
      d="M7.4 19.1C13 17 19.2 19.4 25.6 23.2C31.8 26.8 38.5 30.7 48.2 29.7C47 31.8 44.8 34.1 41.5 35.1C34.8 37 28.4 33.7 21.5 29.6C16.8 26.8 11.9 24 5.6 23.1C5.8 21.9 6.3 20.6 7.4 19.1Z"
      fill="white"
      opacity="0.96"
    />
  </g>

  <g font-family="Inter, ui-sans-serif, system-ui, -apple-system, BlinkMacSystemFont, 'Segoe UI', sans-serif" font-weight="800">
    <text x="66" y="38" font-size="30" letter-spacing="0" fill="currentColor">Flow</text>
    <text x="133" y="38" font-size="30" letter-spacing="0" fill="url(#sphereText)">Sphere</text>
  </g>
</svg>
